<?xml version="1.0" encoding="utf-8"?>
<svg version="1.1" xmlns:xlink="http://www.w3.org/1999/xlink" width="32px" height="32px" xmlns="http://www.w3.org/2000/svg">
  <g transform="matrix(1 0 0 1 -1078 -30 )">
    <path d="M 31.3409090909091 16  C 31.3409090909091 24.4729204545455  24.4729204545455 31.3409090909091  16 31.3409090909091  C 7.52707954545455 31.3409090909091  0.659090909090909 24.4729204545455  0.659090909090909 16  C 0.659090909090909 7.52707954545455  7.52707954545455 0.659090909090909  16 0.659090909090909  C 24.4729204545455 0.659090909090909  31.3409090909091 7.52707954545455  31.3409090909091 16  Z M 19.3408409090909 13.5915454545455  L 19.3407727272727 13.5926704545455  C 19.5578977272727 13.5926704545455  19.7715113636364 13.6092045454545  19.9838977272727 13.6316363636364  C 19.4068409090909 10.9292840909091  16.5274545454545 8.919625  13.2421818181818 8.919625  C 9.56980681818182 8.919625  6.55944318181818 11.4343409090909  6.55944318181818 14.6264431818182  C 6.55944318181818 16.4697045454545  7.56134090909091 17.9825568181818  9.2335 19.1579090909091  L 8.56555681818182 21.1758522727273  L 10.9021136363636 20.0005  C 11.7364204545455 20.1657045454545  12.407875 20.3356477272727  13.2422159090909 20.3356477272727  C 13.45225 20.3356477272727  13.6587727272727 20.3250454545455  13.8676477272727 20.3085113636364  C 13.7354772727273 19.8831931818182  13.6591477272727 19.3941590909091  13.6587727272727 18.8873977272727  C 13.6588068181818 15.9717727272727  16.1676590909091 13.5915454545455  19.3408409090909 13.5915454545455  Z M 14.7444318181818 12.6108181818182  C 14.7444318181818 12.1045681818182  15.2471363636364 11.7729659090909  15.7474886363636 11.7729659090909  C 16.2525454545455 11.7729659090909  16.5853409090909 12.1045681818182  16.5853409090909 12.6108181818182  C 16.5853409090909 13.1135227272727  16.2525795454545 13.4498295454545  15.7474886363636 13.4498295454545  C 15.2471363636364 13.4498295454545  14.7444318181818 13.1135227272727  14.7444318181818 12.6108181818182  Z M 11.9051363636364 12.6108522727273  C 11.9051363636364 13.1135568181818  11.572375 13.4498636363636  11.0708295454545 13.4498636363636  C 10.5693181818182 13.4498636363636  10.0653863636364 13.1135568181818  10.0653863636364 12.6108522727273  C 10.0653863636364 12.1046022727273  10.5692840909091 11.773  11.0708295454545 11.773  C 11.572375 11.773  11.9051363636364 12.1046022727273  11.9051363636364 12.6108522727273  Z M 25.4405568181818 18.8227272727273  C 25.4405568181818 16.1404204545455  22.7665 13.9526022727273  19.7644204545455 13.9526022727273  C 16.5841136363636 13.9526022727273  14.08 16.1404545454545  14.08 18.8227272727273  C 14.08 21.5109318181818  16.5841136363636 23.6928522727273  19.7644204545455 23.6928522727273  C 20.4288181818182 23.6928522727273  21.1002727272727 23.5241022727273  21.7681818181818 23.3553522727273  L 23.6020340909091 24.3631136363636  L 23.0993295454545 22.6862159090909  C 24.4410454545455 21.6760681818182  25.4405909090909 20.3355113636364  25.4405909090909 18.8226590909091  Z M 17.9211590909091 17.9837159090909  L 17.9211590909091 17.9825227272727  C 17.5895568181818 17.9825227272727  17.2520568181818 17.6509204545455  17.2520568181818 17.3110681818182  C 17.2520568181818 16.9759204545455  17.5895568181818 16.6408068181818  17.9211590909091 16.6408068181818  C 18.4286022727273 16.6408068181818  18.7590113636364 16.9759545454545  18.7590113636364 17.3110681818182  C 18.7590113636364 17.6509204545455  18.4285681818182 17.9837159090909  17.9211590909091 17.9837159090909  Z M 21.5982386363636 17.9837159090909  L 21.5982386363636 17.9825227272727  C 21.2677954545455 17.9825227272727  20.9326818181818 17.6509204545455  20.9326818181818 17.3110681818182  C 20.9326818181818 16.9759204545455  21.2666363636364 16.6408068181818  21.5982386363636 16.6408068181818  C 22.0974318181818 16.6408068181818  22.4325454545455 16.9759545454545  22.4325454545455 17.3110681818182  C 22.4325454545455 17.6509204545455  22.0973977272727 17.9837159090909  21.5982386363636 17.9837159090909  Z " fill-rule="nonzero" fill="#ffffff" stroke="none" transform="matrix(1 0 0 1 1078 30 )" />
  </g>
</svg>