<?xml version="1.0" encoding="utf-8"?>
<svg version="1.1" xmlns:xlink="http://www.w3.org/1999/xlink" width="7px" height="9px" xmlns="http://www.w3.org/2000/svg">
  <g transform="matrix(1 0 0 1 -1037 -37 )">
    <path d="M 4.8248454909145 7.04024659258467  C 4.8248454909145 7.38573459710419  5.01148379141802 7.6848656278963  5.2738 7.7598  C 5.31611265223857 7.77231599050934  5.35939117036871 7.77863430730347  5.40280918657003 7.77863430730347  C 5.67283242553018 7.77863430730347  5.90653233235869 7.53722184727612  5.9647 7.1982  C 6.4183 4.5927  6.1642 2.6622  5.2066 1.458  C 3.6694 -0.480600000000002  0.9583 0.342899999999997  0.842800000000005 0.377999999999997  C 0.59622168945103 0.471354566039713  0.426922224743854 0.762363121661409  0.426922224743854 1.09285158504061  C 0.426922224743854 1.50441418061452  0.686417983741919 1.83805158504061  1.00652222474385 1.83805158504061  C 1.04248086877218 1.83805158504061  1.0783614922729 1.83374917362064  1.1137 1.8252  C 1.1389 1.8198  3.325 1.1583  4.4023 2.5218  C 5.05330000000001 3.3453  5.1982 4.8087  4.8391 6.8769  C 4.82962671427016 6.93049529242135  4.8248454909145 6.98528473054568  4.8248454909145 7.04024659258467  Z " fill-rule="nonzero" fill="#ffffff" stroke="none" transform="matrix(1 0 0 1 1037 37 )" />
  </g>
</svg>