<?xml version="1.0" encoding="utf-8"?>
<svg version="1.1" xmlns:xlink="http://www.w3.org/1999/xlink" width="32px" height="32px" xmlns="http://www.w3.org/2000/svg">
  <g transform="matrix(1 0 0 1 -1016 -30 )">
    <path d="M 30.7311304347826 15.1343157894737  C 31.4657391304348 9.75578947368421  30.7791304347826 5.88547368421053  28.6838260869565 3.63452631578947  C 25.4678260869565 0.18357894736842  20.231652173913 1.98484210526316  20.0125217391304 2.06315789473684  C 19.6859102414458 2.17828747096166  19.4613147097457 2.540627791606  19.4613147097457 2.95242105263158  C 19.4613147097457 3.46394607393308  19.803870634577 3.87861903557103  20.2264347826087 3.87861903557103  C 20.2988234628237 3.87861903557103  20.3708458539929 3.86618344784865  20.440347826087 3.84168421052632  C 20.4862608695652 3.82652631578947  25.0921739130435 2.2501052631579  27.6737391304348 5.02905263157895  C 29.3453913043478 6.82526315789474  29.8671304347826 10.1271578947368  29.2222608695652 14.8336842105263  C 29.1492173913043 15.3389473684211  29.4372173913044 15.8189473684211  29.8504347826087 15.8997894736842  C 29.8921739130435 15.9048421052632  29.936 15.9124210526316  29.9777391304348 15.9124210526316  C 30.3522461126375 15.9109056149552  30.670925346219 15.5817725502678  30.7311304347826 15.1343157894737  Z M 26.872347826087 23.1275789473684  C 28.2601739130435 17.9814736842105  24.1488695652174 15.8341052631579  23.0010434782609 15.9149473684211  C 23.0010434782609 15.9149473684211  26.1690434782609 6.77473684210526  15.5944347826087 11.3271578947368  C 15.928347826087 6.52715789473684  14.2066086956522 3.61431578947369  9.04765217391305 7.16126315789474  C 9.04765217391305 7.16126315789474  -7.72730434782609 20.9296842105263  4.5064347826087 29.7237894736842  C 4.5064347826087 29.7237894736842  19.8935652173913 37.4214736842105  26.872347826087 23.1275789473684  Z M 21.5860869565217 21.0181052631579  C 21.9742608695652 25.1107368421053  18.1634782608696 29.0012631578947  13.0733913043478 29.7061052631579  C 7.98539130434783 30.4134736842105  3.54434782608696 27.6724210526316  3.15617391304348 23.5848421052632  C 2.768 19.4972631578947  6.58086956521739 15.6042105263158  11.6688695652174 14.8968421052632  C 16.7589565217391 14.1894736842105  21.1979130434783 16.9330526315789  21.5860869565217 21.0181052631579  Z " fill-rule="nonzero" fill="#ffffff" stroke="none" transform="matrix(1 0 0 1 1016 30 )" />
  </g>
</svg>