<?xml version="1.0" encoding="utf-8"?>
<svg version="1.1" xmlns:xlink="http://www.w3.org/1999/xlink" width="13px" height="12px" xmlns="http://www.w3.org/2000/svg">
  <g transform="matrix(1 0 0 1 -1022 -47 )">
    <path d="M 11.6169444444444 5.60571428571429  C 11.3959444444444 2.75657142857143  8.91294444444445 0.696857142857139  6.06594444444444 1.00285714285714  C 3.21894444444444 1.31142857142857  1.08694444444444 3.86742857142858  1.30577777777778 6.71657142857143  C 1.52461111111111 9.56571428571428  4.00761111111111 11.628  6.85677777777778 11.3245714285714  C 9.70161111111111 11.0185714285714  11.8357777777778 8.45742857142857  11.6169444444444 5.60571428571429  Z M 6.46027777777778 7.45971428571429  C 6.46027777777778 8.43428571428572  5.74527777777778 9.22628571428572  4.86344444444445 9.22628571428572  C 3.98377777777778 9.22628571428572  3.26877777777778 8.43428571428572  3.26877777777778 7.45971428571429  C 3.26877777777778 6.48257142857143  3.98377777777778 5.69057142857143  4.86344444444445 5.69057142857143  C 5.74527777777778 5.69057142857143  6.46027777777778 6.48257142857143  6.46027777777778 7.45971428571429  Z M 7.62378105064307 6.25371819360661  C 7.62305773621688 6.25371819360661  7.62233442220625 6.25371689097434  7.62161111111111 6.25371428571429  C 7.22757647894892 6.25229503099364  6.90878105064307 5.87279441618553  6.90878105064307 5.40514676503518  C 6.90878105064307 4.93649370589305  7.22889745451406 4.55657533646376  7.62378105064307 4.55657533646376  C 8.01866464677209 4.55657533646376  8.33878105064307 4.93649370589305  8.33878105064307 5.40514676503518  C 8.33878105064307 5.40600260673111  8.33877995968673 5.40685844793592  8.33877777777778 5.40771428571428  C 8.33758553482623 5.87536283736373  8.0178200598871 6.25371819360661  7.62378105064307 6.25371819360661  Z " fill-rule="nonzero" fill="#ffffff" stroke="none" transform="matrix(1 0 0 1 1022 47 )" />
  </g>
</svg>