<?xml version="1.0" encoding="utf-8"?>
<svg version="1.1" xmlns:xlink="http://www.w3.org/1999/xlink" width="32px" height="32px" xmlns="http://www.w3.org/2000/svg">
  <g transform="matrix(1 0 0 1 -954 -30 )">
    <path d="M 32 2.3222222221875  C 31.8984126984375 1.103174603125  30.8825396825 0.0873015875  29.6634920634375 0  L 2.3365079365625 0  C 1.1174603175 0.0873015875  0.1523809525 1.103174603125  0.1523809525 2.3222222221875  L 0.1523809525 29.649206349375  C 0.1523809525 30.8682539684375  1.1682539684375 31.884126984375  2.3873015871875 31.884126984375  L 29.714285714375 31.884126984375  C 30.9333333334375 31.884126984375  31.949206349375 30.8682539684375  32 29.649206349375  L 32 2.3222222221875  Z M 15.8984126984375 15.173015873125  C 16.8634920634375 15.2746031746875  16.8634920634375 17.1539682540625  16.8634920634375 17.1539682540625  L 12.190476190625 17.1539682540625  L 11.4285714284375 20.3539682540625  L 12.5460317459375 19.3888888890625  C 12.5460317459375 19.3888888890625  15.085714285625 22.284126984375  15.5428571428125 22.9952380953125  C 16 23.7063492065625  15.59365079375 26.296825396875  15.59365079375 26.296825396875  L 11.27619047625 20.9126984128125  C 11.27619047625 20.9126984128125  9.9047619046875 25.6873015875  8.07619047625 26.804761905  C 6.2476190478125 27.8714285715625  4.3682539684375 27.1095238096875  4.368253968125 27.1095238096875  C 4.3682539678125 27.1095238096875  6.95873015875 25.2301587303125  8.3809523809375 22.8428571428125  C 9.7523809525 20.455555555625  10.209523809375 17.2047619046875  10.209523809375 17.204761905  L 4.8253968253125 17.204761905  C 4.8253968253125 17.204761905  5.2317460315625 15.2746031746875  5.9428571428125 15.2238095240625  C 6.6539682540625 15.173015873125  10.209523809375 15.2238095240625  10.209523809375 15.2238095240625  L 10.15873015875 9.331746031875  L 8.126984126875 9.4333333334375  C 8.126984126875 9.4333333334375  7.720634920625 10.9063492065625  6.603174603125 11.7190476190625  C 5.485714285625 12.5317460315625  4.8253968253125 12.226984126875  4.8253968253125 12.2269841271875  C 4.8253968253125 12.2269841275  6.80634920625 6.690476190625  7.4158730159375 5.573015873125  C 8.0253968253125 4.455555555625  9.803174603125 4.3539682540625  9.803174603125 4.3539682540625  L 8.634920635 7.4523809525  L 15.5428571428125 7.4523809525  C 16.355555555625 7.4523809525  16.40634920625 9.3825396828125  16.40634920625 9.3825396825  L 12.1396825396875 9.3825396825  L 12.1396825396875 15.173015873125  C 12.1396825396875 15.173015873125  14.9841269840625 15.0714285715625  15.8984126984375 15.173015873125  Z M 27 7.249206349375  L 27 24.7222222221875  L 23.314285714375 24.7222222221875  L 20.2666666665625 26.9063492065625  L 19.6571428571875 24.7222222221875  L 18 24.7222222221875  L 18 7.249206349375  L 27 7.249206349375  Z " fill-rule="nonzero" fill="#ffffff" stroke="none" transform="matrix(1 0 0 1 954 30 )" />
  </g>
</svg>