<?xml version="1.0" encoding="utf-8"?>
<svg version="1.1" xmlns:xlink="http://www.w3.org/1999/xlink" width="170px" height="170px" xmlns="http://www.w3.org/2000/svg">
  <g transform="matrix(1 0 0 1 -35 -15 )">
    <path d="M 120 15  C 167.6 15  205 52.4  205 100  C 205 147.6  167.6 185  120 185  C 72.4 185  35 147.6  35 100  C 35 52.4  72.4 15  120 15  Z " fill-rule="nonzero" fill="#ffffff" stroke="none" />
    <path d="M 120 15.5  C 167.32 15.5  204.5 52.68  204.5 100  C 204.5 147.32  167.32 184.5  120 184.5  C 72.68 184.5  35.5 147.32  35.5 100  C 35.5 52.68  72.68 15.5  120 15.5  Z " stroke-width="1" stroke="#797979" fill="none" />
  </g>
</svg>