<?xml version="1.0" encoding="utf-8"?>
<svg version="1.1" xmlns:xlink="http://www.w3.org/1999/xlink" width="32px" height="32px" xmlns="http://www.w3.org/2000/svg">
  <g transform="matrix(1 0 0 1 -1140 -30 )">
    <path d="M 31.2470995340909 15.9980115454545  C 31.2470995340909 7.58664389772728  24.4283568522727 0.767901181818182  16.0170240795455 0.767901181818182  C 7.60569134090909 0.767901181818182  0.78691371590909 7.58664389772727  0.78691371590909 15.9980115454545  C 0.78691371590909 24.4093791931818  7.60565643181818 31.2281219090909  16.0170240795455 31.2281219090909  C 24.4283917272727 31.2281219090909  31.2470995340909 24.4093791931818  31.2470995340909 15.9980115454545  Z M 14.1216983295454 21.9032092272727  C 14.0670676136364 21.9386179886364  14.0174605340909 21.9752476818182  13.9723187840909 22.0133076931818  L 13.9700861022727 22.0151915227273  C 13.7296905454545 22.2198992840909  13.5715548522727 22.4273629886364  13.4694102727273 22.6229307386364  C 13.2974599545455 22.6226167613636  13.1289632840909 22.613407  12.960920125 22.5991388636364  C 11.4742073977273 23.4297611704545  8.91543025 23.1533638409091  8.28365493181818 22.5882895  C 7.79490993181818 22.1520122159091  7.82034140909091 21.5823329772727  8.396648875 21.0915646477273  C 8.54937734090909 20.962767625  8.81830917045454 20.8508900227273  9.12889422727273 20.7564202272727  C 8.62249719318182 20.2040442045455  8.23781547727273 19.5525237386364  8.00781577272727 18.8403375113636  C 7.87361148863636 19.0533131022727  7.75276831818182 19.2488808863636  7.67270626136363 19.3898529318182  C 7.36163281818181 19.9384962386364  6.98343976136364 19.9915569659091  6.76781288636363 19.3978765681818  C 6.528010375 18.7397627840909  6.60992138636363 17.7328643636364  7.05150127272727 16.5947617954545  C 7.32458448863636 15.8915760113636  7.78147906818182 15.2950698863636  8.11477456818182 14.9095508977273  C 7.99162896590909 14.6938193295454  7.92126505681818 14.4681803295454  7.92126505681818 14.2345176590909  C 7.92126505681818 13.7466099318182  8.20823268181818 13.2915642386364  8.70029179545454 12.9004636136364  C 8.95069947727272 10.3728740568182  10.9933116590909 8.40184674999999  13.4779223636364 8.40184674999999  C 14.7988943977273 8.40184674999999  15.9952207272727 8.95956024999999  16.8634844090909 9.86187212499999  C 16.4832680227273 10.0766966704545  16.1261108977273 10.3398375113636  15.800594875 10.6486434318182  C 14.8758167840909 11.5258726818182  14.2748802045454 12.7008142272727  14.0918712045454 13.9796097727273  C 13.4261523863636 14.5896863295454  13.2792846931818 15.2039840227273  13.2792846931818 15.6271443863636  C 13.2792846931818 15.8198166590909  13.3104025 16.0118958863636  13.3721148522727 16.2016028977273  C 12.9605015568182 16.7242565227273  12.6514863522727 17.2481311818182  12.4515230227273 17.7630053636364  C 11.963092 19.0218812840909  11.8607381363636 20.1724728522727  12.1631251136364 21.0023276363636  C 12.4060672954545 21.67115125  12.8286346136364 21.8042741022727  13.0589134204545 21.8240541590909  C 13.3984185113636 21.8531137272727  13.6660944659091 21.6874427840909  13.8618715681818 21.4863631136364  C 13.9422825113636 21.6285910340909  14.0289728295454 21.7676444090909  14.1216983295454 21.9032092272727  Z M 25.0341774659091 17.8800460340909  C 25.4209173522727 18.8769672386364  25.4926767045455 19.7589757613636  25.2826314659091 20.3354576363636  C 25.0933081818182 20.85507625  24.7624546818182 20.8085739659091  24.4899994204545 20.3284107727273  C 24.4198797045455 20.2049163181818  24.3141070340909 20.0335939204545  24.1964733522727 19.8470614886364  C 23.9961611704545 20.4676385568182  23.6624819431818 21.0346316022727  23.2222277159091 21.516818125  C 23.5064044886364 21.602078125  23.752486375 21.7020946818182  23.8908071363636 21.8190306931818  C 24.3951459318182 22.2489239431818  24.4178563409091 22.7479601363636  23.9901608636364 23.1300952613636  C 23.4363196477273 23.6250498522727  21.1913021363636 23.8675734318182  19.8898310568182 23.1383282159091  C 19.7304743636364 23.152282375  19.5690943409091 23.1605153636364  19.4056909545455 23.1605153636364  C 19.2524741022727 23.1605153636364  19.1024667386364 23.1522824090909  18.9528430681818 23.1395840909091  C 17.65053475 23.8671547954545  15.4091802045455 23.6250498522727  14.855757625 23.1300952613636  C 14.4276435113636 22.7479601704545  14.4499353181818 22.2489239772727  14.954727625 21.8190306931818  C 15.0885132727273 21.7062111931818  15.3240946477273 21.6081830909091  15.5961313068182 21.5254697159091  C 15.1525629659091 21.0416086818182  14.8156045 20.4709177954545  14.6141062272727 19.8470614886364  C 14.4965422954545 20.0335939204545  14.390699875 20.2049163181818  14.3205801590909 20.3284107727273  C 14.0480899886364 20.8089925681818  13.7168178863636 20.8554948522727  13.5279481136364 20.3354576363636  C 13.317902875 19.7589757613636  13.3896622272727 18.8769672045455  13.7764370909091 17.8800460340909  C 14.0156465568182 17.2641087386364  14.4158522840909 16.7415597386364  14.7078085340909 16.4038686931818  C 14.59994275 16.2148942613636  14.5383001818182 16.0172333636364  14.5383001818182 15.8125605113636  C 14.5383001818182 15.3851790113636  14.7896846363636 14.9865779772727  15.2206942613636 14.6440029659091  C 15.4400190113636 12.4299288522727  17.2292931590909 10.7034135795455  19.4056910227273 10.7034135795455  C 21.5813213977273 10.7034135795455  23.3710141818182 12.4303474545455  23.5903389318182 14.6440029659091  C 24.0209298863636 14.9865779772727  24.2727330113636 15.3851789772727  24.2727330113636 15.8125605113636  C 24.2727330113636 16.0172333636364  24.2115090795455 16.2148942613636  24.1032246590909 16.4038686931818  C 24.3951809090909 16.741978375  24.7958052727273 17.2640738295455  25.0345961022727 17.8800460340909  Z " fill-rule="nonzero" fill="#ffffff" stroke="none" transform="matrix(1 0 0 1 1140 30 )" />
  </g>
</svg>